/vscmnt/brussel_pixiu_data/_data_brussel/112/vsc11236/PredSimResults/SUBJ04mtu3D/weighted-expIG/worker_01.mot
version=1
nRows=9
nColumns=50
inDegrees=yes
endheader
                time	         pelvis_tilt	         pelvis_list	     pelvis_rotation	           pelvis_tx	           pelvis_ty	           pelvis_tz	       hip_flexion_r	     hip_adduction_r	      hip_rotation_r	        knee_angle_r	       ankle_angle_r	         mtp_angle_r	       hip_flexion_l	     hip_adduction_l	      hip_rotation_l	        knee_angle_l	       ankle_angle_l	         mtp_angle_l	    lumbar_extension	      lumbar_bending	     lumbar_rotation	 ercspn_r/activation	 intobl_r/activation	 extobl_r/activation	    abd_r/activation	    add_r/activation	hamstrings_r/activation	bifemsh_r/activation	glut_max_r/activation	iliopsoas_r/activation	rect_fem_r/activation	  vasti_r/activation	gastroc_r/activation	 soleus_r/activation	tib_ant_r/activation	 ercspn_l/activation	 intobl_l/activation	 extobl_l/activation	    abd_l/activation	    add_l/activation	hamstrings_l/activation	bifemsh_l/activation	glut_max_l/activation	iliopsoas_l/activation	rect_fem_l/activation	  vasti_l/activation	gastroc_l/activation	 soleus_l/activation	tib_ant_l/activation	
          0.68482324	         -5.24789539	          4.75918924	        -12.17056953	          0.61634092	          0.88331576	          0.01985818	         -8.97516624	         -4.48174320	         14.62921711	         -8.98845361	         12.12364426	         24.08974568	         24.13724040	          0.52790076	         -4.58496726	          2.19566244	          5.11515001	          0.22506137	         -3.17374877	         -1.88175478	          1.16554731	          0.04322678	          0.00999999	          0.00999999	          0.07815444	          0.00999999	          0.01654174	          0.12529499	          0.06362946	          0.30226799	          0.00999999	          0.00999999	          0.28691060	          0.27168358	          0.01236731	          0.08343037	          0.16105700	          0.01853044	          0.02206269	          0.11760831	          0.01870662	          0.00999999	          0.00999999	          0.05339364	          0.01228273	          0.02554496	          0.00999999	          0.00999999	          0.26116747	
          0.69851971	         -5.36053180	          4.63944481	        -12.01697207	          0.63132822	          0.88152419	          0.01878261	         -9.18241336	         -4.32794662	         13.79026703	        -10.34280215	         11.83600710	         25.76300474	         23.70434713	          0.79638799	         -3.34411786	          1.55681097	          4.78764758	          0.21028130	         -2.88723515	         -2.16277416	          1.42023521	          0.06303939	          0.00999999	          0.00999999	          0.06362946	          0.02431287	          0.01368975	          0.10200895	          0.05180394	          0.26919932	          0.00999999	          0.00999999	          0.26278315	          0.26327583	          0.01006885	          0.06952590	          0.17256178	          0.01508657	          0.01796234	          0.10508532	          0.02373134	          0.01000008	          0.01229133	          0.04347045	          0.00999999	          0.02079743	          0.01574320	          0.01452203	          0.28393760	
          0.71221617	         -5.45733242	          4.52054052	        -11.78956579	          0.64661202	          0.87997970	          0.01760867	         -9.30792193	         -4.15518324	         12.91082412	        -11.90966858	         11.40266168	         27.46761449	         23.13277231	          1.07354010	         -2.14655973	          1.11278477	          4.28819252	          0.20781864	         -2.59184106	         -2.46937001	          1.66705123	          0.08821838	          0.00999999	          0.00999999	          0.05180395	          0.03110695	          0.01158258	          0.08305062	          0.04217620	          0.23129253	          0.01000000	          0.00999999	          0.23260952	          0.24640828	          0.00999999	          0.06914287	          0.16588361	          0.01228273	          0.03985006	          0.08555525	          0.02829770	          0.05546116	          0.02410121	          0.03539148	          0.00999999	          0.01693224	          0.01281733	          0.01182311	          0.31638729	
          0.72591264	         -5.53870464	          4.40108682	        -11.48366169	          0.66201438	          0.87888299	          0.01633616	         -9.30043085	         -3.95359662	         11.97816195	        -13.74315750	         10.76476695	         29.17925943	         22.48069346	          1.36996802	         -1.02516461	          0.79312248	          3.76957231	          0.19062213	         -2.30432985	         -2.80068579	          1.90432900	          0.10980983	          0.00999999	          0.00999999	          0.04217620	          0.03250489	          0.01123482	          0.06761569	          0.03433776	          0.19647573	          0.01000000	          0.00999999	          0.18937911	          0.22285282	          0.00999999	          0.06822721	          0.14059959	          0.00999999	          0.06236188	          0.06965484	          0.03065481	          0.04515372	          0.03420940	          0.02881398	          0.00999999	          0.01575418	          0.01043523	          0.00999999	          0.33988284	
          0.73960910	         -5.60471508	          4.27990490	        -11.10229858	          0.67741485	          0.87835940	          0.01498477	         -9.13666092	         -3.72239111	         10.97390344	        -15.85228903	          9.89481911	         30.81353668	         21.77974201	          1.67942744	          0.01439193	          0.51395033	          3.36015210	          0.17729859	         -2.03239896	         -3.15322831	          2.12869198	          0.12300178	          0.00999999	          0.00999999	          0.03433777	          0.03594718	          0.01526469	          0.05504933	          0.02795610	          0.17492897	          0.00999999	          0.00999999	          0.15418307	          0.18143569	          0.00999999	          0.06264717	          0.11446920	          0.00999999	          0.08253262	          0.05912698	          0.03636346	          0.03676192	          0.03427655	          0.02345891	          0.00999999	          0.01568886	          0.00999999	          0.00999999	          0.35694400	
          0.75330557	         -5.65557184	          4.15115758	        -10.65158622	          0.69271194	          0.87842820	          0.01357373	         -8.80011499	         -3.46007658	          9.88051452	        -18.24531915	          8.82845180	         32.20529758	         21.04687551	          1.98795238	          0.97291896	          0.24962715	          3.07322071	          0.16602307	         -1.78365806	         -3.51673000	          2.33667513	          0.13354471	          0.00999999	          0.00999999	          0.02795610	          0.04642123	          0.02060297	          0.04481843	          0.02276047	          0.15855289	          0.00999999	          0.00999999	          0.12552819	          0.14771592	          0.00999999	          0.05560208	          0.09319514	          0.00999999	          0.10344370	          0.06362947	          0.04015713	          0.02992973	          0.02790626	          0.01909908	          0.00999999	          0.01533141	          0.00999999	          0.00999999	          0.36131791	
          0.76700203	         -5.69161179	          4.00536729	        -10.13803062	          0.70781661	          0.87906016	          0.01212234	         -8.27641637	         -3.16620846	          8.67752828	        -20.92626584	          7.62544973	         33.14506229	         20.28887304	          2.27747213	          1.85157010	         -0.00597318	          2.91542060	          0.15721579	         -1.56616917	         -3.87730139	          2.52657318	          0.13747990	          0.00999999	          0.00999999	          0.02276047	          0.05492773	          0.02530766	          0.03648895	          0.01853044	          0.14253705	          0.00999999	          0.00999999	          0.10219882	          0.12026297	          0.00999999	          0.04810167	          0.07587485	          0.00999999	          0.11533729	          0.05180397	          0.04289037	          0.02436730	          0.02271989	          0.01554952	          0.00999999	          0.01583839	          0.00999999	          0.00999999	          0.35514234	
          0.78069850	         -5.71358019	          3.82817926	         -9.56730138	          0.72266000	          0.88023072	          0.01064902	         -7.55555805	         -2.84285552	          7.35299188	        -23.89194876	          6.33975308	         33.42923535	         19.50312101	          2.52648010	          2.65145730	         -0.23781272	          2.86469077	          0.15207992	         -1.38748873	         -4.21657705	          2.69697159	          0.13634578	          0.00999999	          0.00999999	          0.01853044	          0.06359829	          0.02621654	          0.03356225	          0.01508657	          0.12791595	          0.00999999	          0.00999999	          0.08320520	          0.09791213	          0.00999999	          0.04407056	          0.06177353	          0.00999999	          0.11772916	          0.04217622	          0.04572898	          0.01983865	          0.01927724	          0.01265965	          0.00999999	          0.01476271	          0.00999999	          0.00999999	          0.34299381	
          0.79439496	         -5.72157656	          3.60508619	         -8.94388029	          0.73722211	          0.88187723	          0.00916673	         -6.63754749	         -2.49649280	          5.92517598	        -27.12088048	          4.93129294	         33.05764991	         18.68566742	          2.71619069	          3.38378309	         -0.43103155	          2.87988932	          0.15066240	         -1.25055330	         -4.51632265	          2.84568196	          0.13260680	          0.00999999	          0.00999999	          0.01508657	          0.07441059	          0.02497246	          0.03365013	          0.01228273	          0.11637902	          0.00999999	          0.00999999	          0.06774154	          0.07971519	          0.00999999	          0.03850173	          0.05029294	          0.00999999	          0.11147231	          0.03433778	          0.04846829	          0.01615165	          0.01738174	          0.01030686	          0.00999999	          0.01397235	          0.00999999	          0.00999999	          0.32933328	
